HIERARCHY
ROOT Bip001_Pelvis
{
  OFFSET 34.4345 95.6767 -26.8758
  CHANNELS 6 Xposition Yposition Zposition Zrotation Xrotation Yrotation
  JOINT Bip001_Spine
  {
    OFFSET 1.4188e-005 10.2191 -0.0116013
    CHANNELS 3 Zrotation Xrotation Yrotation
    JOINT Bip001_L_Thigh
    {
      OFFSET 11.0458 -10.2192 0.0116197
      CHANNELS 3 Zrotation Xrotation Yrotation
      JOINT Bip001_L_Calf
      {
        OFFSET -0.707118 -44.0221 0.360014
        CHANNELS 3 Zrotation Xrotation Yrotation
        JOINT Bip001_L_Foot
        {
          OFFSET -0.651902 -40.5938 -3.56146
          CHANNELS 3 Zrotation Xrotation Yrotation
          JOINT Bip001_L_Toe0
          {
            OFFSET 0.0530839 -10.2181 13.1504
            CHANNELS 3 Zrotation Xrotation Yrotation
            End Site
            {
              OFFSET -1.02532e-005 0 7.55606
            }
          }
        }
      }
    }
    JOINT Bip001_R_Thigh
    {
      OFFSET -11.0458 -10.2191 0.0115893
      CHANNELS 3 Zrotation Xrotation Yrotation
      JOINT Bip001_R_Calf
      {
        OFFSET 0.706994 -44.0221 0.35984
        CHANNELS 3 Zrotation Xrotation Yrotation
        JOINT Bip001_R_Foot
        {
          OFFSET 0.651786 -40.5938 -3.5613
          CHANNELS 3 Zrotation Xrotation Yrotation
          JOINT Bip001_R_Toe0
          {
            OFFSET -0.0531479 -10.2181 13.1504
            CHANNELS 3 Zrotation Xrotation Yrotation
            End Site
            {
              OFFSET -1.02894e-005 0 7.55606
            }
          }
        }
      }
    }
    JOINT Bip001_Spine1
    {
      OFFSET 1.87041e-005 14.5736 1.08638
      CHANNELS 3 Zrotation Xrotation Yrotation
      JOINT Bip001_Spine2
      {
        OFFSET 2.24614e-005 14.5058 -1.69078
        CHANNELS 3 Zrotation Xrotation Yrotation
        JOINT Bip001_Neck
        {
          OFFSET 2.20278e-005 15.3945 -0.489414
          CHANNELS 3 Zrotation Xrotation Yrotation
          JOINT Bip001_L_Clavicle
          {
            OFFSET 6.06036 -0.000579998 0.00836775
            CHANNELS 3 Zrotation Xrotation Yrotation
            JOINT Bip001_L_UpperArm
            {
              OFFSET 11.5509 -0.0600302 0.00193952
              CHANNELS 3 Zrotation Xrotation Yrotation
              JOINT Bip001_L_Forearm
              {
                OFFSET 25.9523 0.0806089 -2.15551
                CHANNELS 3 Zrotation Xrotation Yrotation
                JOINT Bip001_L_Hand
                {
                  OFFSET 32.2475 0.153767 1.63968
                  CHANNELS 3 Zrotation Xrotation Yrotation
                  JOINT Bip001_L_Finger0
                  {
                    OFFSET 6.04639 -2.20976 5.90322
                    CHANNELS 3 Zrotation Xrotation Yrotation
                    End Site
                    {
                      OFFSET 4.22375 -1.43895 0.606485
                    }
                  }
                  JOINT Bip001_L_Finger1
                  {
                    OFFSET 11.0826 -0.704819 -0.198153
                    CHANNELS 3 Zrotation Xrotation Yrotation
                    End Site
                    {
                      OFFSET 6.20027 -0.397518 -0.0787166
                    }
                  }
                }
              }
            }
          }
          JOINT Bip001_R_Clavicle
          {
            OFFSET -6.06037 -0.000563197 0.00835105
            CHANNELS 3 Zrotation Xrotation Yrotation
            JOINT Bip001_R_UpperArm
            {
              OFFSET -11.5509 -0.0599978 0.00190698
              CHANNELS 3 Zrotation Xrotation Yrotation
              JOINT Bip001_R_Forearm
              {
                OFFSET -25.9523 0.0806822 -2.15589
                CHANNELS 3 Zrotation Xrotation Yrotation
                JOINT Bip001_R_Hand
                {
                  OFFSET -32.2475 0.153859 1.63989
                  CHANNELS 3 Zrotation Xrotation Yrotation
                  JOINT Bip001_R_Finger0
                  {
                    OFFSET -6.04641 -2.20976 5.90317
                    CHANNELS 3 Zrotation Xrotation Yrotation
                    End Site
                    {
                      OFFSET -4.22376 -1.43895 0.60647
                    }
                  }
                  JOINT Bip001_R_Finger1
                  {
                    OFFSET -11.0826 -0.704794 -0.198182
                    CHANNELS 3 Zrotation Xrotation Yrotation
                    End Site
                    {
                      OFFSET -6.20028 -0.397504 -0.0787333
                    }
                  }
                }
              }
            }
          }
          JOINT Bip001_Head
          {
            OFFSET 1.09673e-005 11.2744 2.05948
            CHANNELS 3 Zrotation Xrotation Yrotation
            End Site
            {
              OFFSET 2.89576e-005 20.8808 -2.77728e-005
            }
          }
        }
      }
    }
  }
}
MOTION
Frames:	16
Frame Time:	0.04
33.6408 94.4876 -30.5721 -1.58554 -4.39484 3.90836 0.534412 2.02916 0.708012 8.84665 -5.96936 9.0086 -1.10441 21.8854 -3.90919 3.35297 -9.71355 0.136335 1.45345 -5.62397 -0.844776 -3.51491 -2.23761 -2.42556 0.601615 17.3182 1.34853 -9.61603 -9.01419 -6.8978 3.48068 -11.4952 3.92976 1.04669 4.06465 1.39846 1.04464 4.06465 1.39837 9.20427 -17.4374 -9.89504 -33.332 13.4451 7.56335 -52.0046 42.3886 5.08771 17.577 2.33958 -28.2155 7.07776 1.93265 -4.52774 -9.54166e-015 0 -1.59028e-015 -1.27222e-014 0 -0 1.69307 24.1049 33.4222 36.4996 -47.4876 49.8503 -31.4717 9.03073 46.0949 -12.951 -18.7083 8.64492 -6.36111e-015 0 4.77083e-015 -6.36111e-015 -3.18056e-015 1.59028e-015 -9.13464 7.0072 -5.30774 
34.27 94.9078 -30.7911 -1.6761 -3.47333 4.26049 0.471683 1.87647 1.07278 8.66334 -5.90101 8.60011 -1.7689 19.7286 -3.62018 2.89921 -9.15743 0.120439 1.29453 -5.13576 -0.805962 -3.68881 -1.51808 -3.74875 0.134401 14.0855 0.989591 -8.55456 -7.58701 -5.6685 3.40983 -11.3343 3.91711 0.909256 3.76138 2.13165 0.909162 3.76137 2.13165 10.3721 -17.8557 -13.82 -34.7905 11.5902 10.1189 -52.1344 43.0768 6.96758 17.64 1.63374 -29.3795 7.16022 1.24865 -4.86428 0 0 -3.18055e-015 3.18055e-015 0 -3.18055e-015 -5.00087 22.6419 39.3095 36.1182 -42.1793 62.6535 -32.6115 2.05441 20.8124 -11.4671 -20.9241 10.8745 3.18055e-015 0 -9.54166e-015 3.18055e-015 0 -1.27222e-014 -9.82362 7.98595 -8.51091 
34.8043 95.3418 -30.9565 -1.85403 -2.76865 4.21268 0.525704 1.76334 0.888169 8.321 -5.24135 8.63095 -2.04697 17.0619 -2.9313 2.36974 -8.40547 0.0959105 1.30786 -4.71404 -0.801168 -3.78378 -0.527604 -4.19947 -0.235046 10.4658 0.663013 -7.42352 -5.8711 -4.5009 3.30504 -11.0541 3.84253 1.02465 3.53436 1.76138 1.02465 3.53444 1.76137 12.0894 -16.4594 -16.3291 -35.126 8.48738 12.336 -54.4353 43.442 8.59297 17.1148 0.387721 -29.1436 8.08657 1.33086 -4.74938 3.18055e-015 6.36111e-015 -1.59028e-015 6.36111e-015 6.36111e-015 -3.18055e-015 -8.35981 20.1794 43.9361 45.6653 -51.689 72.375 -31.968 11.1823 18.7462 -5.81263 -21.0364 6.92227 3.18055e-015 3.18055e-015 -0 3.18055e-015 3.18056e-015 -1.59028e-015 -10.0155 7.92434 -10.5229 
35.5481 95.6784 -31.0395 -1.65526 -2.45034 3.08298 0.65273 1.80877 0.716193 6.94938 -4.01206 9.08725 -1.41987 14.265 -1.91613 1.76958 -7.57025 0.0777074 1.30089 -4.09501 -0.920736 -4.57039 0.267195 -5.09722 -0.678672 7.54647 0.435935 -6.02238 -4.68408 -2.19704 3.16297 -10.7797 3.89571 1.28348 3.62545 1.41185 1.28356 3.62535 1.4123 16.9598 -14.3945 -18.9341 -38.4414 3.55952 13.6373 -57.0291 43.5786 9.4361 16.6124 1.02632 -27.2245 8.8533 1.34395 -4.63806 -3.18055e-015 3.18055e-015 1.59028e-015 -3.18055e-015 6.36111e-015 1.59028e-015 -11.3505 17.0471 44.9459 19.6803 -51.7068 58.762 -17.7843 3.28306 13.4734 -11.4547 -16.1243 6.04384 9.54166e-015 0 -4.77083e-015 6.36111e-015 0 -0 -14.0529 5.90716 -11.1225 
36.2541 95.9155 -31.249 -1.83535 -1.83637 0.316643 1.05277 1.71681 0.66989 5.98907 -2.86841 8.97429 -1.6179 11.9203 1.13218 0.88727 -7.3537 0.0812066 0.852489 -3.31013 -0.563727 -5.36318 0.416443 -5.08056 -0.946676 4.73318 0.397079 -4.60511 -3.33165 0.341579 3.06519 -10.4901 3.78793 2.09111 3.44614 1.32337 2.08976 3.44606 1.31625 17.7932 -12.9347 -20.2898 -39.768 0.875945 14.158 -58.623 44.7468 10.7843 16.3665 2.95132 -25.6681 7.28383 1.50621 -5.66444 0 0 -4.77083e-015 3.18055e-015 -3.18056e-015 -3.18055e-015 -17.025 10.7844 43.3918 6.55531 -41.8224 51.3276 -15.728 -1.75965 5.87924 -9.93342 -18.4323 9.61856 -3.97251e-031 -4.77083e-015 -4.77083e-015 -2.64834e-031 -4.77083e-015 -3.18055e-015 -16.4611 6.21008 -11.4369 
36.7615 95.9834 -31.5841 -2.1942 -0.518304 -3.1953 1.17145 1.62582 0.83304 5.89212 -2.8644 10.2991 -1.9531 10.675 3.45255 0.582039 -7.45411 0.0982806 0.811829 -3.01047 -0.52888 -5.56338 -0.898274 -3.44862 -1.02216 3.02281 0.299459 -3.53551 -2.22297 1.92446 2.97291 -10.1844 3.63692 2.32248 3.26846 1.63997 2.32171 3.26836 1.63692 18.2286 -12.8619 -20.6711 -41.2784 -0.0152886 14.6448 -57.8715 49.5169 12.25 16.0659 3.45443 -24.276 5.66982 0.916673 -6.49388 3.18055e-015 -3.18055e-015 -0 3.18055e-015 0 -7.95139e-016 -20.1908 8.48118 43.7879 -0.259067 -35.0271 44.6942 -19.2482 1.81208 4.57926 -2.85163 -20.3804 9.61768 -1.27222e-014 0 -1.98785e-016 -1.27222e-014 -1.98785e-016 5.96354e-016 -17.482 6.81499 -11.3169 
37.293 95.9861 -31.9727 -2.13022 0.602639 -6.17215 0.944146 1.61224 0.794433 5.42314 -3.48306 10.9421 -1.53351 10.2914 5.67278 1.1846 -7.08919 0.110929 1.00849 -3.38187 -0.573642 -5.9056 -2.58243 -2.56434 -0.791335 2.40353 0.567641 -2.65641 -1.70052 3.5849 2.85552 -9.86754 3.56377 1.86578 3.23725 1.5601 1.86616 3.23737 1.56164 18.4729 -11.5535 -19.9727 -40.3655 -0.4935 13.6984 -59.0308 54.524 13.5673 16.4172 1.73477 -21.8999 4.7121 0.851095 -6.03056 0 3.18055e-015 -0 -3.18055e-015 4.77083e-015 1.59028e-015 -19.1132 8.09925 43.5005 -6.35526 -30.7958 40.7084 -20.9046 4.9768 4.67238 4.08463 -23.4265 8.11098 3.18055e-015 9.54166e-015 4.77083e-015 -3.31043e-031 1.19271e-014 1.59028e-015 -16.1964 6.5401 -10.8348 
37.6886 95.9389 -32.3277 -2.05807 0.808369 -8.8198 0.988609 1.68649 0.762174 5.12423 -3.70119 11.553 -1.58751 10.8492 7.88653 0.695713 -7.92302 0.11771 0.906764 -2.99745 -0.461904 -6.32924 -3.80194 -2.42947 -0.787138 2.66004 0.811659 -1.87228 -1.62856 5.65216 2.74856 -9.63453 3.57657 1.95596 3.38573 1.49608 1.95596 3.38572 1.49608 17.5039 -10.5598 -19.0333 -39.3911 -0.336585 12.5377 -59.3168 54.3191 13.3275 16.6331 2.17074 -20.3558 4.71796 1.80879 -4.61721 -3.18055e-015 -1.59028e-015 -1.19271e-015 -3.18055e-015 -1.59028e-015 -1.59028e-015 -15.3272 9.3739 41.8241 -7.34535 -29.6943 40.3779 -23.8178 9.92284 7.97998 8.18915 -24.3774 2.84573 -3.18055e-015 -9.54166e-015 -1.59028e-015 -6.36111e-015 -1.11319e-014 -3.18055e-015 -15.3407 5.90495 -10.3634 
38.0338 95.8438 -32.6512 -1.83198 0.635771 -11.3477 1.06304 1.89699 0.658088 4.54776 -3.60174 11.3478 -1.82613 10.9632 10.5995 1.32585 -7.83656 0.134874 1.10321 -3.27609 -0.550247 -6.92559 -5.2663 -2.2146 -0.757778 3.88675 1.12608 -1.25738 -2.02142 7.51656 2.67791 -9.4604 3.55563 2.10871 3.80575 1.28152 2.10746 3.80577 1.28157 15.5562 -10.483 -17.4779 -38.4517 0.900611 11.8523 -57.0892 50.6428 10.4942 16.3855 3.52784 -19.5988 4.99012 2.45952 -3.60242 -6.36111e-015 1.59028e-015 -1.59028e-015 -6.36111e-015 1.59028e-015 -2.38542e-015 -12.6109 10.6699 39.8775 -1.18819 -31.0542 41.9686 -29.0477 16.4128 15.0699 7.22017 -22.6315 3.42063 -1.32417e-031 -1.59028e-015 -4.77083e-015 -3.18055e-015 -1.59028e-015 -1.59028e-015 -14.6047 5.69234 -9.49168 
38.2912 95.754 -32.9022 -1.66237 0.643717 -14.106 1.0116 2.06757 0.521847 4.11782 -3.59679 12.5562 -1.54972 11.1633 12.379 1.37509 -7.95932 0.145979 1.37273 -3.40672 -0.785785 -7.10148 -6.88971 -1.38112 -0.799589 5.07648 1.60142 -0.874389 -2.2654 8.89469 2.64257 -9.38987 3.56953 2.01042 4.14393 1.00752 2.00931 4.14393 1.00757 13.5794 -9.9297 -15.2204 -37.2595 1.99981 10.8581 -54.4009 46.9058 7.86158 15.8619 3.61574 -19.6839 5.42767 2.47923 -3.34535 -9.54166e-015 0 1.59028e-015 -9.54166e-015 0 1.59028e-015 -8.60427 12.4359 39.3441 3.93558 -30.4888 40.3441 -35.1435 18.3473 22.4751 3.93257 -20.2303 5.18992 -3.18055e-015 1.59028e-015 6.36111e-015 -2.64834e-031 1.59028e-015 9.54166e-015 -13.1889 5.21418 -8.13111 
38.3229 95.6836 -33.1085 -1.74749 0.811503 -15.9775 0.951838 2.17221 0.280826 4.1934 -4.00122 13.3165 -1.314 11.8418 13.1316 2.16995 -7.62028 0.153822 1.3947 -4.13056 -0.650858 -6.71051 -8.14459 -0.415595 -0.911517 5.91895 1.95076 -0.77167 -2.33756 9.49809 2.62221 -9.36349 3.60537 1.88629 4.34886 0.52718 1.8885 4.34884 0.527085 11.6594 -8.45261 -12.8073 -35.6869 2.31369 9.37769 -51.8185 44.1065 5.63855 15.4622 2.44714 -20.6709 5.75158 2.51531 -3.39804 -3.18055e-015 1.59028e-015 -7.95139e-016 4.41391e-032 1.59028e-015 -1.59028e-015 -2.5306 13.9905 38.5371 7.39309 -28.5013 35.9409 -41.6895 17.9314 30.7031 -1.88272 -18.3236 8.47828 -6.36111e-015 -1.59028e-015 -1.59028e-015 -3.18055e-015 -1.59028e-015 -1.59028e-015 -10.7938 3.5227 -6.94279 
38.3121 95.5964 -33.1407 -1.51651 0.549951 -16.5635 0.730113 2.29867 0.0789288 4.33345 -4.07422 13.055 -1.71846 12.3842 14.3016 1.87946 -7.9763 0.156917 1.32089 -3.90131 -0.602618 -6.65042 -9.13269 -0.41622 -1.04441 7.71197 2.52287 -0.970302 -3.08827 9.6655 2.64436 -9.44355 3.64425 1.4588 4.59812 0.128616 1.4588 4.59814 0.128624 10.9791 -7.15239 -10.8029 -34.7493 2.52479 7.18611 -49.9483 42.1401 3.74277 15.6784 0.848924 -21.9927 5.98853 2.38352 -3.2401 2.20695e-032 -1.59028e-015 7.95139e-016 -3.18055e-015 -1.59028e-015 -7.95139e-016 3.41112 15.0365 35.7454 11.8166 -26.512 30.2333 -44.8267 14.5565 40.5118 -13.8729 -15.4541 9.86748 -9.54166e-015 -1.59028e-015 1.59028e-015 -6.36111e-015 1.59028e-015 4.77083e-015 -9.16732 1.0249 -5.71245 
38.1526 95.5053 -33.1757 -1.31292 0.220864 -15.9591 0.556848 2.43001 -0.15876 4.47597 -4.35161 12.2955 -1.9768 12.9935 14.6166 2.03205 -7.92743 0.159935 1.35079 -4.01519 -0.583683 -6.56644 -9.79022 -0.23398 -1.13707 9.56844 2.82808 -1.60269 -3.94305 8.92918 2.72133 -9.6733 3.72405 1.12196 4.85836 -0.341651 1.12196 4.85837 -0.341649 9.6897 -6.94129 -8.3801 -33.9897 3.95243 4.93208 -47.169 40.2201 1.35588 15.3901 -0.699819 -23.676 7.04379 2.60138 -3.24966 -3.18055e-015 3.18055e-015 -0 -3.18055e-015 3.18056e-015 7.95139e-016 8.3173 15.9629 32.4987 18.7914 -27.4697 21.7224 -46.7089 12.2002 54.1459 -24.3697 -9.08934 6.2668 -3.18055e-015 -3.18055e-015 3.18055e-015 -0 -1.59028e-015 -0 -7.30804 -0.485824 -4.19944 
37.7679 95.3812 -33.1438 -1.40547 -0.189733 -14.705 0.411734 2.55768 -0.471374 5.11962 -4.68699 11.7732 -2.27183 14.0909 14.2653 1.83046 -8.33753 0.166417 1.36494 -3.91946 -0.662049 -5.99514 -9.95199 0.907 -1.17997 11.2087 3.20778 -2.83784 -4.66783 6.82825 2.91353 -10.1796 3.83086 0.845988 5.11179 -0.963313 0.845871 5.1118 -0.962979 7.7428 -6.29801 -5.72845 -32.4172 4.89232 3.13728 -44.1103 39.4908 -1.47172 15.322 -2.41431 -25.5989 7.66139 2.33294 -3.71421 3.18055e-015 -1.59028e-015 -0 3.18055e-015 1.59028e-015 -0 14.5307 16.2473 29.2641 24.1349 -30.302 10.6512 -54.1396 13.5597 66.9457 -28.4973 -10.2295 6.51733 6.36111e-015 1.59028e-015 -0 3.18055e-015 3.18056e-015 -3.18055e-015 -4.56449 -2.33488 -2.74725 
37.2691 95.1975 -32.9599 -1.48446 -0.93866 -12.7724 0.318641 2.74068 -0.651219 5.76933 -4.83618 12.2825 -2.47226 15.3349 11.8321 2.8605 -8.3161 0.175205 1.6933 -4.6129 -0.903056 -5.5345 -9.75841 1.72064 -1.19609 13.2783 3.46228 -4.35121 -5.62738 4.45338 3.1574 -10.8002 3.9471 0.666709 5.47712 -1.30915 0.668592 5.47715 -1.31415 6.1314 -6.86476 -3.87803 -32.0926 6.37991 2.1974 -40.6114 38.4986 -4.42678 15.2394 -3.45469 -27.8372 8.57744 1.86861 -4.16411 8.82781e-032 3.18055e-015 -1.59028e-015 -3.18055e-015 7.95139e-015 -3.18055e-015 17.6783 16.2907 25.5325 31.1357 -30.9811 -1.05809 -59.2525 14.4829 75.3513 -33.8834 -11.2497 7.0651 -8.82781e-032 1.59028e-015 3.18055e-015 8.82782e-032 1.59028e-015 -3.18055e-015 -3.11248 -3.03533 -1.67402 
36.8517 94.9048 -32.8505 -0.955661 -1.32261 -10.4039 0.142535 2.87023 -0.680178 5.91368 -5.85513 12.2341 -2.50109 17.0439 9.54223 4.12518 -8.22132 0.178594 2.0456 -5.47101 -1.21577 -5.69055 -10.4996 2.92899 -0.570419 16.4894 3.30416 -6.18075 -6.87918 1.34368 3.43035 -11.4476 4.02533 0.319685 5.73864 -1.36894 0.319812 5.73865 -1.37004 5.55105 -9.54248 -2.98775 -32.138 9.30514 2.48637 -38.4811 36.9781 -7.3531 15.3523 -3.83126 -30.2149 9.9272 1.94404 -5.0468 -3.18055e-015 0 1.59028e-015 -3.18055e-015 0 1.59028e-015 19.5257 17.8451 20.6926 39.7479 -26.4726 -10.4238 -61.0303 15.125 76.1347 -40.1641 -9.9653 5.33967 -3.18055e-015 -4.77083e-015 -0 -3.18055e-015 -3.18056e-015 -0 -3.51136 -2.01973 -0.986245 
